<?xml version="1.0" encoding="UTF-8"?>
<!DOCTYPE svg PUBLIC "-//W3C//DTD SVG 1.1//EN" "http://www.w3.org/Graphics/SVG/1.1/DTD/svg11.dtd">
<svg version="1.2" width="100mm" height="100mm" viewBox="0 0 10000 10000" preserveAspectRatio="xMidYMid" fill-rule="evenodd" stroke-width="28.222" stroke-linejoin="round" xmlns="http://www.w3.org/2000/svg" xmlns:ooo="http://xml.openoffice.org/svg/export" xmlns:xlink="http://www.w3.org/1999/xlink" xmlns:presentation="http://sun.com/xmlns/staroffice/presentation" xmlns:smil="http://www.w3.org/2001/SMIL20/" xmlns:anim="urn:oasis:names:tc:opendocument:xmlns:animation:1.0" xml:space="preserve">
 <defs class="ClipPathGroup">
  <clipPath id="presentation_clip_path" clipPathUnits="userSpaceOnUse">
   <rect x="0" y="0" width="10000" height="10000"/>
  </clipPath>
 </defs>
 <defs class="TextShapeIndex">
  <g ooo:slide="id1" ooo:id-list="id3 id4 id5 id6 id7 id8 id9 id10"/>
 </defs>
 <defs class="EmbeddedBulletChars">
  <g id="bullet-char-template(57356)" transform="scale(0.00048828125,-0.00048828125)">
   <path d="M 580,1141 L 1163,571 580,0 -4,571 580,1141 Z"/>
  </g>
  <g id="bullet-char-template(57354)" transform="scale(0.00048828125,-0.00048828125)">
   <path d="M 8,1128 L 1137,1128 1137,0 8,0 8,1128 Z"/>
  </g>
  <g id="bullet-char-template(10146)" transform="scale(0.00048828125,-0.00048828125)">
   <path d="M 174,0 L 602,739 174,1481 1456,739 174,0 Z M 1358,739 L 309,1346 659,739 1358,739 Z"/>
  </g>
  <g id="bullet-char-template(10132)" transform="scale(0.00048828125,-0.00048828125)">
   <path d="M 2015,739 L 1276,0 717,0 1260,543 174,543 174,936 1260,936 717,1481 1274,1481 2015,739 Z"/>
  </g>
  <g id="bullet-char-template(10007)" transform="scale(0.00048828125,-0.00048828125)">
   <path d="M 0,-2 C -7,14 -16,27 -25,37 L 356,567 C 262,823 215,952 215,954 215,979 228,992 255,992 264,992 276,990 289,987 310,991 331,999 354,1012 L 381,999 492,748 772,1049 836,1024 860,1049 C 881,1039 901,1025 922,1006 886,937 835,863 770,784 769,783 710,716 594,584 L 774,223 C 774,196 753,168 711,139 L 727,119 C 717,90 699,76 672,76 641,76 570,178 457,381 L 164,-76 C 142,-110 111,-127 72,-127 30,-127 9,-110 8,-76 1,-67 -2,-52 -2,-32 -2,-23 -1,-13 0,-2 Z"/>
  </g>
  <g id="bullet-char-template(10004)" transform="scale(0.00048828125,-0.00048828125)">
   <path d="M 285,-33 C 182,-33 111,30 74,156 52,228 41,333 41,471 41,549 55,616 82,672 116,743 169,778 240,778 293,778 328,747 346,684 L 369,508 C 377,444 397,411 428,410 L 1163,1116 C 1174,1127 1196,1133 1229,1133 1271,1133 1292,1118 1292,1087 L 1292,965 C 1292,929 1282,901 1262,881 L 442,47 C 390,-6 338,-33 285,-33 Z"/>
  </g>
  <g id="bullet-char-template(9679)" transform="scale(0.00048828125,-0.00048828125)">
   <path d="M 813,0 C 632,0 489,54 383,161 276,268 223,411 223,592 223,773 276,916 383,1023 489,1130 632,1184 813,1184 992,1184 1136,1130 1245,1023 1353,916 1407,772 1407,592 1407,412 1353,268 1245,161 1136,54 992,0 813,0 Z"/>
  </g>
  <g id="bullet-char-template(8226)" transform="scale(0.00048828125,-0.00048828125)">
   <path d="M 346,457 C 273,457 209,483 155,535 101,586 74,649 74,723 74,796 101,859 155,911 209,963 273,989 346,989 419,989 480,963 531,910 582,859 608,796 608,723 608,648 583,586 532,535 482,483 420,457 346,457 Z"/>
  </g>
  <g id="bullet-char-template(8211)" transform="scale(0.00048828125,-0.00048828125)">
   <path d="M -4,459 L 1135,459 1135,606 -4,606 -4,459 Z"/>
  </g>
 </defs>
 <defs class="TextEmbeddedBitmaps"/>
 <g>
  <g id="id2" class="Master_Slide">
   <g id="bg-id2" class="Background"/>
   <g id="bo-id2" class="BackgroundObjects"/>
  </g>
 </g>
 <g class="SlideGroup">
  <g>
   <g id="id1" class="Slide" clip-path="url(#presentation_clip_path)">
    <g class="Page">
     <g class="com.sun.star.drawing.PolyPolygonShape">
      <g id="id3">
       <rect class="BoundingBox" stroke="none" fill="none" x="1159" y="1737" width="7683" height="4290"/>
       <path fill="rgb(25,176,80)" stroke="none" d="M 7307,5578 L 7714,5443 8121,5850 8800,4900 8257,3678 7443,3407 7171,2593 6086,2185 5407,1778 4050,1914 3779,2321 2829,2457 2829,2864 1879,3407 1200,5171 1471,5850 2014,5985 2286,5578 2557,4900 3100,5443 3914,5307 4186,5443 5136,5443 6086,4493 6629,5035 6629,5307 7307,5578 Z"/>
       <path fill="none" stroke="rgb(0,0,0)" stroke-width="81" stroke-linejoin="round" d="M 7307,5578 L 7714,5443 8121,5850 8800,4900 8257,3678 7443,3407 7171,2593 6086,2185 5407,1778 4050,1914 3779,2321 2829,2457 2829,2864 1879,3407 1200,5171 1471,5850 2014,5985 2286,5578 2557,4900 3100,5443 3914,5307 4186,5443 5136,5443 6086,4493 6629,5035 6629,5307 7307,5578 Z"/>
      </g>
     </g>
     <g class="com.sun.star.drawing.PolyPolygonShape">
      <g id="id4">
       <rect class="BoundingBox" stroke="none" fill="none" x="2259" y="4466" width="5076" height="4262"/>
       <path fill="rgb(0,204,51)" stroke="none" d="M 2286,5578 L 3779,6664 4457,8700 6086,8564 6357,6393 7307,5578 6629,5171 5814,5850 5950,5307 6629,4900 6086,4493 5271,5443 5271,6800 5136,5443 4321,5443 4050,5307 4186,5985 3507,5443 3100,5443 2557,4900 2421,5307 2286,5578 Z"/>
       <path fill="none" stroke="rgb(0,0,0)" stroke-width="53" stroke-linejoin="round" d="M 2286,5578 L 3779,6664 4457,8700 6086,8564 6357,6393 7307,5578 6629,5171 5814,5850 5950,5307 6629,4900 6086,4493 5271,5443 5271,6800 5136,5443 4321,5443 4050,5307 4186,5985 3507,5443 3100,5443 2557,4900 2421,5307 2286,5578 Z"/>
      </g>
     </g>
     <g class="com.sun.star.drawing.LineShape">
      <g id="id5">
       <rect class="BoundingBox" stroke="none" fill="none" x="4203" y="5460" width="485" height="1299"/>
       <defs>
        <mask id="mask1">
         <g>
          <defs>
           <linearGradient id="gradient1" x1="4445" y1="5460" x2="4445" y2="6758" gradientUnits="userSpaceOnUse">
            <stop offset="0.5" style="stop-color:rgb(102,102,102)"/>
            <stop offset="0.5" style="stop-color:rgb(102,102,102)"/>
            <stop offset="1" style="stop-color:rgb(102,102,102)"/>
            <stop offset="1" style="stop-color:rgb(102,102,102)"/>
           </linearGradient>
          </defs>
          <path style="fill:url(#gradient1)" d="M 4203,5460 L 4687,5460 4687,6758 4203,6758 4203,5460 Z"/>
         </g>
        </mask>
       </defs>
       <g style="mask:url(#mask1)">
        <path fill="none" stroke="rgb(0,153,51)" stroke-width="212" stroke-linejoin="round" d="M 4581,6652 L 4309,5566"/>
       </g>
      </g>
     </g>
     <g class="com.sun.star.drawing.LineShape">
      <g id="id6">
       <rect class="BoundingBox" stroke="none" fill="none" x="5708" y="4793" width="757" height="621"/>
       <defs>
        <mask id="mask2">
         <g>
          <defs>
           <linearGradient id="gradient2" x1="6085" y1="4794" x2="6085" y2="5413" gradientUnits="userSpaceOnUse">
            <stop offset="0.5" style="stop-color:rgb(102,102,102)"/>
            <stop offset="0.5" style="stop-color:rgb(102,102,102)"/>
            <stop offset="1" style="stop-color:rgb(102,102,102)"/>
            <stop offset="1" style="stop-color:rgb(102,102,102)"/>
           </linearGradient>
          </defs>
          <path style="fill:url(#gradient2)" d="M 5708,4794 L 6463,4794 6463,5413 5708,5413 5708,4794 Z"/>
         </g>
        </mask>
       </defs>
       <g style="mask:url(#mask2)">
        <path fill="none" stroke="rgb(0,153,51)" stroke-width="212" stroke-linejoin="round" d="M 6357,4900 L 5814,5307"/>
       </g>
      </g>
     </g>
     <g class="com.sun.star.drawing.PolyLineShape">
      <g id="id7">
       <rect class="BoundingBox" stroke="none" fill="none" x="2530" y="3108" width="4127" height="1955"/>
       <defs>
        <mask id="mask3">
         <g>
          <defs>
           <linearGradient id="gradient3" x1="4593" y1="3109" x2="4593" y2="5062" gradientUnits="userSpaceOnUse">
            <stop offset="0.5" style="stop-color:rgb(128,128,128)"/>
            <stop offset="0.5" style="stop-color:rgb(128,128,128)"/>
            <stop offset="1" style="stop-color:rgb(128,128,128)"/>
            <stop offset="1" style="stop-color:rgb(128,128,128)"/>
           </linearGradient>
          </defs>
          <path style="fill:url(#gradient3)" d="M 2531,3109 L 6655,3109 6655,5062 2531,5062 2531,3109 Z"/>
         </g>
        </mask>
       </defs>
       <g style="mask:url(#mask3)">
        <path fill="none" stroke="rgb(49,64,4)" stroke-width="53" stroke-linejoin="round" d="M 2557,4900 L 2829,3678 4050,3135 5000,3271 6086,4493 6629,5035"/>
       </g>
      </g>
     </g>
     <g class="com.sun.star.drawing.PolyLineShape">
      <g id="id8">
       <rect class="BoundingBox" stroke="none" fill="none" x="4973" y="2158" width="1005" height="1141"/>
       <defs>
        <mask id="mask4">
         <g>
          <defs>
           <linearGradient id="gradient4" x1="5475" y1="2159" x2="5475" y2="3298" gradientUnits="userSpaceOnUse">
            <stop offset="0.5" style="stop-color:rgb(128,128,128)"/>
            <stop offset="0.5" style="stop-color:rgb(128,128,128)"/>
            <stop offset="1" style="stop-color:rgb(128,128,128)"/>
            <stop offset="1" style="stop-color:rgb(128,128,128)"/>
           </linearGradient>
          </defs>
          <path style="fill:url(#gradient4)" d="M 4974,2159 L 5976,2159 5976,3298 4974,3298 4974,2159 Z"/>
         </g>
        </mask>
       </defs>
       <g style="mask:url(#mask4)">
        <path fill="none" stroke="rgb(49,64,4)" stroke-width="53" stroke-linejoin="round" d="M 5950,2185 L 5271,2457 5000,3271"/>
       </g>
      </g>
     </g>
     <g class="com.sun.star.drawing.PolyLineShape">
      <g id="id9">
       <rect class="BoundingBox" stroke="none" fill="none" x="6602" y="3244" width="869" height="1684"/>
       <defs>
        <mask id="mask5">
         <g>
          <defs>
           <linearGradient id="gradient5" x1="7035" y1="3245" x2="7035" y2="4926" gradientUnits="userSpaceOnUse">
            <stop offset="0.5" style="stop-color:rgb(128,128,128)"/>
            <stop offset="0.5" style="stop-color:rgb(128,128,128)"/>
            <stop offset="1" style="stop-color:rgb(128,128,128)"/>
            <stop offset="1" style="stop-color:rgb(128,128,128)"/>
           </linearGradient>
          </defs>
          <path style="fill:url(#gradient5)" d="M 6602,3245 L 7469,3245 7469,4926 6602,4926 6602,3245 Z"/>
         </g>
        </mask>
       </defs>
       <g style="mask:url(#mask5)">
        <path fill="none" stroke="rgb(49,64,4)" stroke-width="53" stroke-linejoin="round" d="M 7443,3271 L 7171,3543 7171,4085 7307,4493 6900,4628 6629,4900"/>
       </g>
      </g>
     </g>
     <g class="com.sun.star.drawing.PolyLineShape">
      <g id="id10">
       <rect class="BoundingBox" stroke="none" fill="none" x="1987" y="3108" width="1412" height="327"/>
       <defs>
        <mask id="mask6">
         <g>
          <defs>
           <linearGradient id="gradient6" x1="2693" y1="3109" x2="2693" y2="3433" gradientUnits="userSpaceOnUse">
            <stop offset="0.5" style="stop-color:rgb(128,128,128)"/>
            <stop offset="0.5" style="stop-color:rgb(128,128,128)"/>
            <stop offset="1" style="stop-color:rgb(128,128,128)"/>
            <stop offset="1" style="stop-color:rgb(128,128,128)"/>
           </linearGradient>
          </defs>
          <path style="fill:url(#gradient6)" d="M 1988,3109 L 3398,3109 3398,3433 1988,3433 1988,3109 Z"/>
         </g>
        </mask>
       </defs>
       <g style="mask:url(#mask6)">
        <path fill="none" stroke="rgb(49,64,4)" stroke-width="53" stroke-linejoin="round" d="M 2014,3407 L 2693,3135 3371,3407"/>
       </g>
      </g>
     </g>
    </g>
   </g>
  </g>
 </g>
</svg>